Coordinates
version=1
nRows=19
nColumns=24
inDegrees=yes

Units are S.I. units (second, meters, Newtons, ...)
Angles are in degrees.

endheader
time	pelvis_tilt	pelvis_list	pelvis_rotation	pelvis_tx	pelvis_ty	pelvis_tz	hip_flexion_r	hip_adduction_r	hip_rotation_r	knee_angle_r	ankle_angle_r	subtalar_angle_r	mtp_angle_r	hip_flexion_l	hip_adduction_l	hip_rotation_l	knee_angle_l	ankle_angle_l	subtalar_angle_l	mtp_angle_l	lumbar_extension	lumbar_bending	lumbar_rotation
      4.30000000	     34.78891475	      3.30577342	      0.98917437	      0.57594008	      0.67830376	     -0.33741242	    -14.23002047	     -6.54153541	    -13.23528497	    -61.87724581	     12.83057683	     -0.39471334	      0.00000000	    -39.73238311	      4.69026742	      1.77134332	     -1.94430347	     11.94683093	      7.86004788	      0.00000000	    -58.31672409	     -1.76787246	      5.17454870
      4.30500000	     34.62091201	      3.50571112	      1.67294371	      0.58257810	      0.67819159	     -0.33740260	    -13.32997345	     -6.47249572	    -13.63854833	    -60.49383590	     13.23903280	     -0.28112435	      0.00000000	    -40.34817384	      4.36910338	      1.97957847	     -1.60128165	     12.18295138	      8.19515651	      0.00000000	    -58.33161124	     -1.42921965	      4.49572869
      4.31000000	     34.48022553	      3.76336530	      2.35697280	      0.58917621	      0.67795249	     -0.33731871	    -12.51324636	     -6.46814458	    -14.03637818	    -59.00516455	     13.65194287	     -0.17799260	      0.00000000	    -40.95463541	      4.08214200	      2.22982895	     -1.33500007	     12.48754719	      8.51916318	      0.00000000	    -58.39946549	     -1.13717159	      3.77060738
      4.31500000	     34.35685357	      4.05854793	      3.02882119	      0.59576493	      0.67762001	     -0.33716146	    -11.77684194	     -6.50668305	    -14.39851975	    -57.38947302	     14.02856307	     -0.04775968	      0.00000000	    -41.54217691	      3.82263798	      2.47234180	     -1.15160892	     12.83122590	      8.81016461	      0.00000000	    -58.49382232	     -0.90196909	      3.04530011
      4.32000000	     34.33651163	      4.42541067	      3.72336581	      0.60226479	      0.67724234	     -0.33697947	    -11.23412776	     -6.61192065	    -14.78880343	    -55.63248817	     14.39253696	      0.03081545	      0.00000000	    -42.19866887	      3.58998614	      2.80835279	     -1.05478062	     13.18651316	      8.96593436	      0.00000000	    -58.72162021	     -0.68757071	      2.22883493
      4.32500000	     34.14549761	      4.68272667	      4.19885765	      0.60890316	      0.67662049	     -0.33664762	    -10.46109318	     -6.66903729	    -14.86399071	    -53.84240953	     14.71713811	      0.23372007	      0.00000000	    -42.69202292	      3.42567353	      2.82956195	     -0.93911635	     13.58746880	      9.25194716	      0.00000000	    -58.75122104	     -0.58023540	      1.73033658
      4.33000000	     34.00972304	      5.05295469	      4.76048171	      0.61545898	      0.67596308	     -0.33630788	     -9.85489983	     -6.81898923	    -15.02972562	    -51.90312875	     15.02313179	      0.38226915	      0.00000000	    -43.19050542	      3.27644531	      2.97280258	     -0.93668282	     14.03397844	      9.58133946	      0.00000000	    -58.85839563	     -0.47486845	      1.03801065
      4.33500000	     33.96955590	      5.47279643	      5.36702222	      0.62197301	      0.67526744	     -0.33597797	     -9.45305248	     -7.01015344	    -15.26331515	    -49.81564326	     15.33397778	      0.50439642	      0.00000000	    -43.77521154	      3.11670791	      3.22846994	     -0.97897860	     14.52424930	      9.76109747	      0.00000000	    -59.07932417	     -0.37568350	      0.36068417
      4.34000000	     33.80781006	      5.78989981	      5.78296634	      0.62859558	      0.67440141	     -0.33554838	     -8.89685580	     -7.14485974	    -15.21619157	    -47.66200284	     15.58247010	      0.72477398	      0.00000000	    -44.24756895	      3.01916733	      3.20446440	     -1.00196778	     14.97162502	     10.01058018	      0.00000000	    -59.15688959	     -0.33270303	     -0.15869303
      4.34500000	     33.69024317	      6.18026201	      6.25444547	      0.63516718	      0.67348693	     -0.33510835	     -8.48731445	     -7.34134335	    -15.24005780	    -45.37271208	     15.82413162	      0.89229940	      0.00000000	    -44.74065247	      2.92212909	      3.25943840	     -1.08785918	     15.48291865	     10.29941597	      0.00000000	    -59.29529286	     -0.30990518	     -0.74141593
      4.35000000	     33.59147740	      6.56167662	      6.70495946	      0.64177548	      0.67251568	     -0.33468050	     -8.17426791	     -7.53721040	    -15.24162430	    -42.94914574	     16.04787675	      1.08922700	      0.00000000	    -45.25447974	      2.82138843	      3.31820597	     -1.18853557	     15.99078312	     10.54335451	      0.00000000	    -59.44480764	     -0.28497987	     -1.26381654
      4.35500000	     33.55256761	      6.96442424	      7.15164657	      0.64838657	      0.67151115	     -0.33421532	     -8.01190590	     -7.74275789	    -15.24706064	    -40.39057929	     16.25448228	      1.26436792	      0.00000000	    -45.83396763	      2.71072603	      3.43537404	     -1.29903527	     16.49910385	     10.76617859	      0.00000000	    -59.65596085	     -0.27754770	     -1.74549234
      4.36000000	     33.38987934	      7.30327709	      7.46199011	      0.65507133	      0.67034773	     -0.33376604	     -7.71847068	     -7.94953664	    -15.10873045	    -37.76657031	     16.41470467	      1.50459899	      0.00000000	    -46.28113094	      2.67857822	      3.32746930	     -1.42315100	     16.98586925	     11.01122122	      0.00000000	    -59.72551643	     -0.31098094	     -2.15349986
      4.36500000	     33.41663092	      7.70081095	      7.89298715	      0.66174579	      0.66926981	     -0.33336029	     -7.80138372	     -8.15912000	    -15.16463136	    -34.94098579	     16.55806753	      1.73082696	      0.00000000	    -46.93754000	      2.54098322	      3.45439570	     -1.54621604	     17.46766224	     11.19033018	      0.00000000	    -59.98566512	     -0.27327686	     -2.63677763
      4.37000000	     33.19738955	      8.05159340	      8.12848452	      0.66852857	      0.66793777	     -0.33286362	     -7.56725931	     -8.41730488	    -15.00697998	    -32.13275563	     16.66436385	      2.01767375	      0.00000000	    -47.33306480	      2.55534088	      3.31662944	     -1.68124321	     17.95574764	     11.51408823	      0.00000000	    -59.98000625	     -0.39042035	     -2.95017185
      4.37500000	     33.10807989	      8.44311658	      8.45353973	      0.67533528	      0.66667662	     -0.33245213	     -7.63180777	     -8.68934228	    -15.06474134	    -29.14554267	     16.72274865	      2.35167371	      0.00000000	    -47.86339169	      2.48735405	      3.33988151	     -1.84290215	     18.41071150	     11.85714139	      0.00000000	    -60.10156421	     -0.42404349	     -3.37508611
      4.38000000	     33.03014643	      8.81950078	      8.73380161	      0.68225162	      0.66534810	     -0.33203615	     -7.77224486	     -8.95823303	    -15.15595616	    -26.08128159	     16.74687013	      2.75473451	      0.00000000	    -48.43187038	      2.42489472	      3.37398765	     -1.97395402	     18.83278798	     12.09842619	      0.00000000	    -60.20617078	     -0.48273328	     -3.74678862
      4.38500000	     32.95426995	      9.21277002	      8.97490447	      0.68925662	      0.66395768	     -0.33157933	     -7.97290840	     -9.25051963	    -15.28210499	    -22.96783592	     16.72536734	      3.19771478	      0.00000000	    -49.01206581	      2.38026165	      3.44703436	     -2.11005690	     19.22844155	     12.36773601	      0.00000000	    -60.29555050	     -0.58345714	     -4.12133156
      4.39000000	     32.87389459	      9.60977427	      9.19165754	      0.69639912	      0.66251856	     -0.33111044	     -8.23389668	     -9.55230035	    -15.48685092	    -19.81424600	     16.63645843	      3.72745201	      0.00000000	    -49.60683399	      2.33462229	      3.55807485	     -2.23261519	     19.55039330	     12.63770844	      0.00000000	    -60.35057305	     -0.71016514	     -4.48039103
